# 
# Wavefront OBJ file
# Converted by the 3D Exploration 1.7
# XDimension Software, LLC
# http://www.xdsoft.com/explorer/
# 
# object Object #0
g Object__0
v 40.5 0 -15.5
v 40.5 -10 -13.5
v 41.5 -16 -19.5
v 37.5 1 -7.5
v -37.5 -3 -5.5
v -41.5 -3 -11.5
v -37.5 -5 -7.5
v -33.5 -6 -1.5
v -37.5 -7 -8.5
v -14.5 -13 -25.5
v -16.5 -3 -28.5
v -14.5 -4 -40.5
v 10.5 21 21.5
v 20.5 3 19.5
v 17.5 19 14.5
v -20.5 -10 23.5
v -29.5 -14 13.5
v -12.5 -18 23.5
v 7.5 3 27.5
v 2.5 -14 28.5
v 11.5 -7 25.5
v -6.5 3 29.5
v -6.5 13 29.5
v 28.5 -17 -1.5
v 31.5 1 3.5
v 26.5 2 12.5
v 24.5 -14 7.5
v 32.5 -25 -13.5
v 16.5 -27 -6.5
v 17.5 -32 -13.5
v 9.5 28 10.5
v 22.5 17 6.5
v -3.5 32 17.5
v 0.5 29 21.5
v 9.5 24 -18.5
v 33.5 16 -16.5
v 27.5 16 -5.5
v -22.5 2 23.5
v -28.5 -6 16.5
v -15.5 -3 27.5
v -7.5 -8 31.5
v 1.5 19 -28.5
v -7.5 20 -21.5
v 1.5 28 -7.5
v 7.5 -35 -18.5
v 6.5 -29 -12.5
v -4.5 -26 -21.5
v -5.5 -30 -27.5
v 15.5 23 -27.5
v 0.5 17 -37.5
v -10.5 6 -32.5
v -12.5 -16 -30.5
v -12.5 -22 -36.5
v 17.5 -21 3.5
v -12.5 -27 1.5
v -5.5 -24 -15.5
v 4.5 -27 -7.5
v -3.5 -27 14.5
v 10.5 -23 7.5
v 3.5 -22 22.5
v 12.5 -16 19.5
v -9.5 33 9.5
v -13.5 28 -9.5
v -14.5 22 -19.5
v -25.5 23 -10.5
v -20.5 28 -3.5
v -25.5 16 -20.5
v -24.5 10 -24.5
v -33.5 12 -14.5
v -11.5 12 -26.5
v -22.5 6 -26.5
v -35.5 -3 -24.5
v -33.5 -9 -22.5
v -37.5 -7 -21.5
v -34.5 7 -22.5
v -38.5 2 -21.5
v -39.5 4 -16.5
v -36.5 8 -16.5
v -39.5 -3 -17.5
v -40.5 1 -15.5
v -34.5 11 -12.5
v -38.5 3 -11.5
v -29.5 -15 -15.5
v -23.5 -11 -24.5
v -12.5 -24 -10.5
v -24.5 -22 -8.5
v -39.5 -6 -14.5
v -37.5 -10 -17.5
v -32.5 -13 -9.5
v -31.5 -12 -4.5
v -39.5 1 -8.5
v -35.5 -2 -2.5
v -32.5 -15 1.5
v -25.5 -22 1.5
v -12.5 -26 15.5
v -15.5 26 35.5
v -17.5 22 32.5
v -10.5 22 34.5
v -33.5 11 5.5
v -32.5 17 3.5
v -35.5 12 -0.5
v -31.5 -14 7.5
v -28.5 -19 8.5
v -33.5 5 -3.5
v -33.5 11 -6.5
v -31.5 19 -0.5
v -18.5 28 8.5
v -30.5 20 6.5
v -31.5 13 11.5
v -30.5 7 14.5
v -30.5 1 16.5
v -34.5 -2 3.5
v 0.5 23 26.5
v -6.5 31 30.5
v -5.5 26 33.5
v -10.5 35 17.5
v -11.5 35 24.5
v -12.5 34 31.5
v -13.5 31 36.5
v -18.5 18 28.5
v -20.5 14 22.5
v -12.5 23 21.5
v -0.5 -26 29.5
v -17.5 -15 29.5
v -15.5 -18 34.5
v -12.5 -24 38.5
v -9.5 -30 38.5
v -8.5 -31 31.5
v -10.5 -30 23.5
v -6.5 -31 24.5
v -4.5 -29 34.5
v -2.5 -21 35.5
v -8.5 -23 40.5
v -8.5 -18 38.5
v -13.5 8 27.5
# 135 verticies
vt 0.987952 0.642857
vt 0.987952 0.5
vt 1 0.728571
vt 0.951807 0.485714
vt 0 0.542857
vt 0.0481928 0.542857
vt 0.0481928 0.571429
vt 0.0963855 0.585714
vt 0.0481928 0.6
vt 0.325301 0.685714
vt 0.325301 0.557143
vt 0.301205 0.542857
vt 0.746988 0.457143
vt 0.626506 0.2
vt 0.710843 0.228571
vt 0.144578 0.7
vt 0.253012 0.642857
vt 0.349398 0.757143
vt 0.53012 0.7
vt 0.590361 0.457143
vt 0.638554 0.6
vt 0.421687 0.457143
vt 0.421687 0.314286
vt 0.879518 0.485714
vt 0.843373 0.742857
vt 0.819277 0.471429
vt 0.795181 0.7
vt 0.891566 0.857143
vt 0.698795 0.885714
vt 0.710843 0.957143
vt 0.614458 0.1
vt 0.771084 0.257143
vt 0.457831 0.0428572
vt 0.506024 0.0857143
vt 0.614458 0.157143
vt 0.903614 0.271429
vt 0.831325 0.271429
vt 0.228916 0.471429
vt 0.156627 0.585714
vt 0.313253 0.542857
vt 0.409639 0.614286
vt 0.518072 0.228571
vt 0.518072 0.1
vt 0.409639 0.214286
vt 0.590361 1
vt 0.578313 0.914286
vt 0.445783 0.871429
vt 0.433735 0.928571
vt 0.686747 0.171429
vt 0.506024 0.257143
vt 0.373494 0.414286
vt 0.349398 0.728571
vt 0.349398 0.814286
vt 0.710843 0.8
vt 0.433735 0.842857
vt 0.349398 0.885714
vt 0.554217 0.885714
vt 0.457831 0.885714
vt 0.626506 0.828571
vt 0.542169 0.814286
vt 0.650602 0.728571
vt 0.385542 0.0285714
vt 0.337349 0.1
vt 0.325301 0.185714
vt 0.192771 0.171429
vt 0.253012 0.1
vt 0.192771 0.271429
vt 0.204819 0.357143
vt 0.0963855 0.328571
vt 0.361446 0.328571
vt 0.228916 0.414286
vt 0.0722892 0.542857
vt 0.0963855 0.628571
vt 0.0843373 0.4
vt 0.0361446 0.471429
vt 0.0240964 0.442857
vt 0.060241 0.385714
vt 0.0120482 0.485714
vt 0.0240964 0.542857
vt 0.0843373 0.342857
vt 0.0361446 0.457143
vt 0.144578 0.714286
vt 0.216867 0.657143
vt 0.349398 0.842857
vt 0.204819 0.814286
vt 0.0240964 0.585714
vt 0.0481928 0.642857
vt 0.108434 0.685714
vt 0.120482 0.671429
vt 0.0240964 0.485714
vt 0.0722892 0.528571
vt 0.108434 0.714286
vt 0.192771 0.814286
vt 0.349398 0.871429
vt 0.313253 0.128571
vt 0.373494 0.185714
vt 0.289157 0.185714
vt 0.108434 0.257143
vt 0.0963855 0.342857
vt 0.0722892 0.328571
vt 0.120482 0.7
vt 0.156627 0.771429
vt 0.0963855 0.428571
vt 0.120482 0.228571
vt 0.277108 0.1
vt 0.13253 0.214286
vt 0.120482 0.314286
vt 0.13253 0.4
vt 0.13253 0.485714
vt 0.0843373 0.528571
vt 0.506024 0.171429
vt 0.421687 0.0571429
vt 0.433735 0.128571
vt 0.373494 0
vt 0.361446 0
vt 0.349398 0.0142857
vt 0.337349 0.0571429
vt 0.277108 0.242857
vt 0.253012 0.3
vt 0.349398 0.171429
vt 0.493976 0.871429
vt 0.289157 0.714286
vt 0.313253 0.757143
vt 0.385542 0.928571
vt 0.39759 0.942857
vt 0.373494 0.928571
vt 0.421687 0.942857
vt 0.445783 0.914286
vt 0.46988 0.8
vt 0.39759 0.828571
vt 0.39759 0.757143
vt 0.337349 0.385714
# 132 texture verticies
vn -0.990118 -0.0275033 -0.137516
vn -0.936913 -0.0685546 -0.342773
vn 0.727607 0.485071 -0.485071
vn 0.777778 0.444444 -0.444444
vn 0.745356 0.298142 -0.596285
vn 0.823842 0.25349 -0.506979
vn 0.961848 0.234597 0.140758
vn -0.713267 -0.327401 -0.619724
vn 0.520579 0.520579 -0.676753
vn -0.348987 0.0475891 -0.935919
vn -0.141421 0 -0.989949
vn -0.82744 0.274056 -0.490139
vn -0.850878 0.250646 -0.461717
vn -0.750704 0.400376 -0.525493
vn -0.536962 0.28638 -0.79351
vn -0.845529 0.269032 -0.461197
vn -0.369324 0.730441 -0.574504
vn -0.339107 0.726658 -0.597474
vn -0.593607 -0.702296 -0.392951
vn -0.740877 -0.322947 -0.588903
vn -0.822482 -0.386317 -0.417472
vn -0.669064 -0.702517 -0.242536
vn -0.406177 -0.87822 -0.252488
vn -0.571766 -0.714708 -0.402835
vn -0.622869 -0.774989 0.106895
vn -0.705706 0.290197 -0.646347
vn -0.873638 -0.399571 -0.277668
vn -0.778432 -0.462341 -0.424599
vn -0.850257 -0.41838 -0.319409
vn -0.82404 -0.385721 -0.414942
vn 0.685949 0.114325 -0.718613
vn 0.505712 0.126428 -0.853388
vn 0.200123 -0.900551 0.385951
vn 0.0435143 0.815892 -0.576564
vn 0.25619 0.704524 -0.661825
vn 0.592277 0.616955 -0.518242
vn 0.593512 0.62049 -0.512578
vn -0.307173 -0.946425 -0.0996237
vn -0.299687 -0.939929 -0.163466
vn -0.360686 -0.929842 -0.072799
vn -0.29386 -0.946884 0.130605
vn 0.0817915 -0.916065 0.392599
vn 0.258072 -0.948796 0.182169
vn 0.246914 -0.931218 0.268078
vn 0.736968 -0.576757 0.352463
vn 0.991837 0.090167 -0.090167
vn 0.864511 0.339629 -0.370504
vn 0.85921 0.361773 -0.361773
vn -0.480982 0.745051 -0.46212
vn -0.472273 0.775877 -0.418299
vn 0.115755 0.968914 0.218649
vn 0.436436 0.872872 -0.218218
vn 0.403944 0.893572 -0.195851
vn 0.0300692 0.932146 -0.360831
vn 0.0430986 0.854789 -0.517183
vn 0 1 0
vn -0.327339 0.93738 -0.119032
vn -0.333605 0.935544 -0.116037
vn -0.373527 0.89758 -0.234151
vn -0.391919 0.887582 -0.242068
vn -0.596852 0.693639 -0.403278
vn -0.524321 0.752286 -0.39894
vn -0.742376 0.312579 -0.592598
vn -0.699821 0.294662 -0.650711
vn -0.523693 -0.039277 -0.851001
vn -0.514259 -0.192847 -0.835672
vn -0.23959 -0.965017 0.106485
vn -0.286039 -0.953463 0.0953463
vn -0.0348252 -0.964659 0.261189
vn -0.0691118 -0.852378 0.518338
vn -0.0868836 -0.839874 0.535782
vn 0.306667 -0.829394 0.46697
vn 0.183343 -0.959496 0.2139
vn 0.327991 -0.86371 0.382657
vn 0.367154 -0.762017 0.533412
vn 0.20739 -0.518476 0.829561
vn 0.666667 -0.333333 0.666667
vn 0.643063 -0.627379 0.439165
vn 0.195594 -0.35859 0.912774
vn 0.0775826 -0.556009 0.827548
vn 0.435627 -0.623545 0.64917
vn 0.485928 -0.863067 0.137801
vn 0.698926 -0.444109 0.560597
vn 0.0873959 -0.160226 0.983204
vn 0.816184 -0.334845 0.470875
vn 0.853595 -0.487769 0.182913
vn 0.333993 -0.282609 0.899211
vn 0.205353 -0.0798593 0.975424
vn 0.191614 0.36726 0.910167
vn 0.408248 0.408248 0.816497
vn 0.338497 -0.816375 0.467922
vn 0.252904 -0.213996 0.943528
vn 0.484217 -0.217898 0.847381
vn 0.760941 -0.535477 0.366379
vn 0.666667 -0.666667 0.333333
vn 0.751101 -0.563326 0.344255
vn 0.816497 -0.0816497 0.571548
vn 0.977805 -0.0296304 0.207413
vn 0.847381 0.217898 0.484217
vn 0.866578 -0.0618984 0.495188
vn 0.778499 -0.622799 0.0778499
vn 0.88473 -0.455004 -0.101112
vn 0.770371 -0.577778 -0.26963
vn 0.889001 -0.381 -0.254
vn 0.932055 0.310685 0.186411
vn 0.798067 0.601141 -0.041458
vn 0.800528 0.595742 -0.0651593
vn 0.267261 0.801784 0.534522
vn 0.238951 0.258864 0.935891
vn 0.173616 0.314679 0.933185
vn 0.239854 0.817685 0.523318
vn 0.369311 0.772195 0.517035
vn 0.170697 0.955904 0.238976
vn 0.278659 0.771288 0.572246
vn 0.225993 0.799667 0.55629
vn 0.198107 0.950915 0.237729
vn 0.818182 0.545455 -0.181818
vn 0.927173 0.264906 0.264906
vn 0.941742 0.269069 0.201802
vn 0.481919 0.700973 0.52573
vn 0.382431 0.798118 0.465569
vn 0.732242 0.646096 -0.215365
vn 0.532748 0.846129 -0.0156691
vn 0.731667 0.666339 0.14372
vn 0.734146 0.622428 -0.271315
vn 0.83205 0 -0.5547
vn 0.894427 -0.447214 0
vn 0.872872 -0.436436 -0.218218
vn 0.945732 0.078811 0.315244
vn 0.904534 0.301511 0.301511
vn 0.751439 0.644091 -0.143131
vn 0.770054 0.23694 -0.592349
vn 0.64481 0.613356 -0.456085
vn 0.870515 0.419137 -0.25793
vn 0.948683 0.189737 0.252982
vn 0.639602 0.639602 0.426401
vn 0.831718 0.548934 0.0831718
vn 0.358748 0.932745 0.0358748
vn 0.358184 0.931278 -0.0665199
vn 0.237252 0.50416 -0.830382
vn 0.900682 -0.264906 -0.344378
vn 0.983636 0.0517703 -0.172568
vn 0.688247 0.688247 -0.229416
vn 0.838054 0.529297 0.132324
vn 0.846499 0.451466 -0.282166
vn 0.945611 0.145479 0.290957
vn 0.983078 -0.0819232 -0.163846
vn 0.803386 -0.450383 -0.38952
vn 0.67037 -0.700842 -0.243771
vn 0.696311 -0.174078 -0.696311
vn 0.836314 -0.304114 -0.456172
vn 0.901263 0.360505 -0.240337
vn 0.755046 -0.623213 0.203743
vn 0.831846 -0.534758 0.148544
vn 0.97898 -0.122373 -0.163163
vn 0.813733 -0.464991 0.348743
vn 0.867826 -0.495901 -0.0309938
vn 0.490946 -0.867339 -0.0818244
vn 0.563033 -0.82109 -0.0938388
vn 0.660747 -0.748016 0.0623346
vn 0.589732 -0.807002 0.0310385
vn 0.852325 -0.520865 -0.0473514
vn 0.903252 -0.263448 -0.338719
vn 0.933346 -0.287183 -0.215387
vn 0.948683 0 -0.316228
vn 0.957518 -0.0911921 -0.273576
vn 0.94537 -0.0226889 -0.325207
vn 0.994736 -0.0852631 0.056842
vn 0.943403 -0.292006 -0.157234
vn 0.898807 0.411953 -0.149801
vn 0.970142 0.242536 0
vn 0.940554 0.130632 -0.313518
vn 0.911804 0.0393019 -0.40874
vn 0.904902 0.258543 -0.338095
vn -0.229696 -0.12863 -0.964725
vn -0.470366 -0.207514 -0.857726
vn -0.47237 -0.863761 -0.175452
vn -0.77246 -0.406558 -0.487869
vn -0.752773 -0.442807 -0.487088
vn -0.455842 -0.569803 -0.683763
vn -0.387652 -0.904521 0.177674
vn -0.393297 -0.917693 -0.0561853
vn -0.477152 -0.860948 -0.176339
vn -0.464214 -0.865125 -0.189906
vn -0.449159 -0.723644 -0.524018
vn -0.561558 -0.505402 -0.65515
vn -0.673396 0.264244 -0.690444
vn -0.0296304 0.207413 -0.977805
vn -0.283846 0.116878 -0.95172
vn -0.409999 0.296896 -0.862412
vn 0.229677 0.548673 -0.80387
vn 0.320885 0.628401 -0.708622
vn 0.350311 0.721228 -0.597589
vn 0.745061 -0.642294 0.179842
vn 0.797127 -0.514811 0.315529
vn 0.752409 -0.592322 0.288157
vn 0.872932 -0.403894 0.273605
vn 0.985048 -0.115888 0.127477
vn 0.985713 -0.1133 0.12463
vn 0.983146 -0.117041 0.140449
vn 0.982006 -0.113308 0.151078
vn 0.463119 -0.734375 -0.496199
vn 0.535052 -0.675855 -0.506891
vn 0.57735 -0.57735 -0.57735
vn 0.631592 -0.508354 -0.585378
vn 0.699364 -0.222986 -0.679093
vn 0.686346 -0.173253 -0.706337
vn 0.656205 -0.23862 -0.71586
vn 0.634653 0.18133 -0.751222
vn -0.541332 0.460132 -0.703732
vn -0.895267 0.190244 -0.40287
vn 0.696311 0.174078 -0.696311
vn 0.50322 0.611052 -0.611052
vn 0.524702 0.652129 -0.547189
vn 0.458408 0.870976 -0.176815
vn 0.102372 0.992218 -0.0708727
vn -0.561402 0.41495 -0.715992
vn -0.274007 0.0240357 -0.961427
vn 0.688247 0.688247 0.229416
vn 0.654911 0.734295 0.178612
vn 0.806018 0.549558 0.219823
vn 0.880451 0.440225 0.17609
vn 0.936382 0.340503 0.0851257
vn 0.962119 0.160353 -0.220486
vn 0.973329 0.162221 -0.162221
vn 0.145779 0.89897 0.41304
vn 0.226752 0.971795 0.0647864
vn 0.126604 0.907326 0.400912
vn -0.653828 0.74951 0.103656
vn -0.662843 0.747205 0.0482068
vn -0.624391 0.780488 -0.0312195
vn -0.378517 0.919255 -0.108148
vn -0.328982 0.92713 -0.179445
vn -0.63485 0.250093 -0.73104
vn -0.824336 0.268388 -0.498436
vn -0.877155 0.182266 -0.444273
vn 0.398015 0.199007 -0.895533
vn -0.667863 0.29112 -0.684988
vn -0.544949 -0.3114 -0.778499
vn -0.554265 -0.356313 -0.752217
vn -0.497927 -0.463349 -0.73306
vn 0.485741 -0.303588 -0.819689
vn 0.468679 -0.328075 -0.820187
vn 0.41458 -0.549319 -0.725515
vn 0.541493 -0.607529 -0.581114
vn 0.503622 -0.522992 -0.687637
vn -0.139487 -0.164848 -0.976406
vn 0.274721 0 -0.961524
vn 0.42059 -0.238713 -0.875283
vn 0.484524 -0.152535 -0.861376
vn 0.343214 0.107254 -0.933113
vn 0.354301 -0.229254 -0.906594
vn 0.541966 0.0903277 -0.835532
vn 0.336568 -0.197981 -0.920612
# 254 normals
usemtl (null)
f 2/1/1 1/2/1 3/3/1
f 2/1/2 4/4/2 1/2/2
f 6/5/3 5/6/3 7/7/3
f 5/6/4 8/8/4 7/7/4
f 9/9/5 6/5/5 7/7/5
f 7/7/6 8/8/6 9/9/6
f 10/10/7 12/11/7 11/12/7
f 14/13/8 13/14/8 15/15/8
f 17/16/9 16/17/9 18/18/9
f 20/19/10 19/20/10 21/21/10
f 19/20/11 22/22/11 23/23/11
f 25/24/12 24/25/12 26/26/12
f 27/27/13 26/26/13 24/25/13
f 3/3/14 28/28/14 2/1/14
f 28/28/15 4/4/15 2/1/15
f 28/28/16 24/25/16 4/4/16
f 4/4/16 24/25/16 25/24/16
f 29/29/17 24/25/17 30/30/17
f 30/30/18 24/25/18 28/28/18
f 13/14/19 31/31/19 15/15/19
f 14/13/20 15/15/20 26/26/20
f 32/32/21 26/26/21 15/15/21
f 15/15/22 31/31/22 32/32/22
f 33/33/23 31/31/23 34/34/23
f 34/34/24 31/31/24 13/14/24
f 31/31/25 35/35/25 32/32/25
f 27/27/26 14/13/26 26/26/26
f 4/4/27 36/36/27 1/2/27
f 4/4/28 37/37/28 36/36/28
f 25/24/28 37/37/28 4/4/28
f 37/37/29 25/24/29 32/32/29
f 26/26/30 32/32/30 25/24/30
f 38/38/31 16/17/31 39/39/31
f 40/40/32 41/41/32 16/17/32
f 42/42/33 44/43/33 43/44/33
f 45/45/34 29/29/34 30/30/34
f 46/46/35 29/29/35 45/45/35
f 45/45/36 47/47/36 46/46/36
f 47/47/37 45/45/37 48/48/37
f 49/49/38 36/36/38 35/35/38
f 37/37/39 35/35/39 36/36/39
f 32/32/40 35/35/40 37/37/40
f 31/31/41 44/43/41 35/35/41
f 44/43/42 42/42/42 35/35/42
f 50/50/43 49/49/43 42/42/43
f 35/35/44 42/42/44 49/49/44
f 12/11/45 50/50/45 51/51/45
f 12/11/46 52/52/46 53/53/46
f 53/53/47 47/47/47 48/48/47
f 52/52/48 47/47/48 53/53/48
f 54/54/49 27/27/49 24/25/49
f 54/54/50 24/25/50 29/29/50
f 56/55/51 55/56/51 57/57/51
f 56/55/52 57/57/52 47/47/52
f 46/46/53 47/47/53 57/57/53
f 57/57/54 29/29/54 46/46/54
f 57/57/55 54/54/55 29/29/55
f 58/58/56 57/57/56 55/56/56
f 57/57/57 58/58/57 59/59/57
f 54/54/58 57/57/58 59/59/58
f 60/60/59 59/59/59 58/58/59
f 59/59/60 60/60/60 54/54/60
f 54/54/61 60/60/61 61/61/61
f 54/54/62 61/61/62 27/27/62
f 21/21/63 14/13/63 61/61/63
f 61/61/64 14/13/64 27/27/64
f 19/20/65 14/13/65 21/21/65
f 19/20/66 13/14/66 14/13/66
f 33/33/67 44/43/67 31/31/67
f 62/62/68 44/43/68 33/33/68
f 44/43/69 62/62/69 63/63/69
f 64/64/70 44/43/70 63/63/70
f 43/44/71 44/43/71 64/64/71
f 63/63/72 65/65/72 64/64/72
f 63/63/73 62/62/73 66/66/73
f 66/66/74 65/65/74 63/63/74
f 64/64/75 65/65/75 67/67/75
f 68/68/76 64/64/76 67/67/76
f 67/67/77 69/69/77 68/68/77
f 67/67/78 65/65/78 69/69/78
f 70/70/79 68/68/79 71/71/79
f 64/64/76 68/68/76 70/70/76
f 64/64/80 70/70/80 43/44/80
f 70/70/81 42/42/81 43/44/81
f 42/42/82 70/70/82 50/50/82
f 51/51/83 50/50/83 70/70/83
f 11/12/84 70/70/84 71/71/84
f 70/70/85 11/12/85 51/51/85
f 11/12/86 12/11/86 51/51/86
f 68/68/87 72/72/87 71/71/87
f 72/72/88 11/12/88 71/71/88
f 73/73/89 11/12/89 72/72/89
f 73/73/90 72/72/90 74/9/90
f 68/68/91 69/69/91 75/74/91
f 72/72/92 68/68/92 75/74/92
f 76/75/93 72/72/93 75/74/93
f 75/74/94 77/76/94 76/75/94
f 75/74/95 69/69/95 78/77/95
f 77/76/96 75/74/96 78/77/96
f 80/78/97 79/79/97 77/76/97
f 77/76/98 79/79/98 76/75/98
f 79/79/99 72/72/99 76/75/99
f 72/72/100 79/79/100 74/9/100
f 81/80/101 78/77/101 69/69/101
f 81/80/102 82/81/102 78/77/102
f 78/77/103 82/81/103 77/76/103
f 77/76/104 82/81/104 80/78/104
f 12/11/105 10/10/105 52/52/105
f 10/10/106 47/47/106 52/52/106
f 47/47/107 10/10/107 56/55/107
f 83/82/108 84/83/108 73/73/108
f 11/12/109 73/73/109 84/83/109
f 10/10/110 11/12/110 84/83/110
f 84/83/111 83/82/111 10/10/111
f 10/10/112 85/84/112 56/55/112
f 85/84/113 55/56/113 56/55/113
f 86/85/114 10/10/114 83/82/114
f 10/10/115 86/85/115 85/84/115
f 86/85/116 55/56/116 85/84/116
f 87/86/117 9/9/117 88/87/117
f 87/86/118 88/87/118 79/79/118
f 74/9/119 79/79/119 88/87/119
f 74/9/120 88/87/120 73/73/120
f 88/87/121 83/82/121 73/73/121
f 89/88/122 88/87/122 9/9/122
f 88/87/123 89/88/123 83/82/123
f 89/88/124 86/85/124 83/82/124
f 90/89/125 86/85/125 89/88/125
f 5/6/126 6/5/126 91/90/126
f 91/90/127 6/5/127 82/81/127
f 82/81/128 6/5/128 80/78/128
f 80/78/129 6/5/129 79/79/129
f 79/79/130 6/5/130 87/86/130
f 6/5/131 9/9/131 87/86/131
f 92/91/132 8/8/132 5/6/132
f 9/9/133 8/8/133 89/88/133
f 89/88/134 8/8/134 90/89/134
f 90/89/135 8/8/135 93/92/135
f 93/92/136 94/93/136 90/89/136
f 90/89/137 94/93/137 86/85/137
f 94/93/138 55/56/138 86/85/138
f 94/93/139 95/94/139 55/56/139
f 96/95/140 98/96/140 97/97/140
f 100/98/141 99/99/141 101/100/141
f 8/8/142 102/101/142 93/92/142
f 102/101/143 94/93/143 93/92/143
f 103/102/144 94/93/144 102/101/144
f 17/16/145 103/102/145 102/101/145
f 101/100/146 104/103/146 105/99/146
f 105/99/147 104/103/147 81/80/147
f 81/80/148 104/103/148 82/81/148
f 82/81/149 104/103/149 91/90/149
f 91/90/150 104/103/150 5/6/150
f 104/103/151 92/91/151 5/6/151
f 99/99/152 104/103/152 101/100/152
f 106/104/153 69/69/153 65/65/153
f 69/69/154 106/104/154 81/80/154
f 81/80/155 106/104/155 105/99/155
f 105/99/156 106/104/156 101/100/156
f 100/98/157 101/100/157 106/104/157
f 107/105/158 66/66/158 62/62/158
f 107/105/159 108/106/159 66/66/159
f 66/66/160 108/106/160 65/65/160
f 65/65/161 108/106/161 106/104/161
f 106/104/162 108/106/162 100/98/162
f 108/106/163 99/99/163 100/98/163
f 108/106/164 109/107/164 99/99/164
f 109/107/165 110/108/165 99/99/165
f 111/109/166 112/110/166 110/108/166
f 110/108/167 112/110/167 99/99/167
f 99/99/168 112/110/168 104/103/168
f 104/103/169 112/110/169 92/91/169
f 92/91/170 112/110/170 8/8/170
f 112/110/171 102/101/171 8/8/171
f 112/110/172 17/16/172 102/101/172
f 17/16/173 112/110/173 39/39/173
f 39/39/174 112/110/174 111/109/174
f 19/20/175 23/23/175 113/111/175
f 13/14/176 19/20/176 113/111/176
f 34/34/177 114/112/177 33/33/177
f 113/111/178 115/113/178 34/34/178
f 34/34/179 115/113/179 114/112/179
f 13/14/180 113/111/180 34/34/180
f 116/114/181 62/62/181 33/33/181
f 116/114/182 33/33/182 117/115/182
f 117/115/183 33/33/183 114/112/183
f 118/116/184 117/115/184 114/112/184
f 118/116/185 114/112/185 119/117/185
f 115/113/186 119/117/186 114/112/186
f 113/111/187 23/23/187 115/113/187
f 119/117/188 98/96/188 96/95/188
f 98/96/189 119/117/189 115/113/189
f 115/113/190 23/23/190 98/96/190
f 98/96/191 23/23/191 97/97/191
f 97/97/192 23/23/192 120/118/192
f 23/23/193 121/119/193 120/118/193
f 121/119/194 122/120/194 120/118/194
f 120/118/195 122/120/195 97/97/195
f 97/97/196 122/120/196 96/95/196
f 96/95/197 122/120/197 119/117/197
f 119/117/198 122/120/198 118/116/198
f 118/116/199 122/120/199 117/115/199
f 117/115/200 122/120/200 116/114/200
f 116/114/201 122/120/201 62/62/201
f 62/62/202 122/120/202 107/105/202
f 122/120/203 108/106/203 107/105/203
f 121/119/204 108/106/204 122/120/204
f 108/106/205 121/119/205 109/107/205
f 109/107/206 121/119/206 110/108/206
f 38/38/207 110/108/207 121/119/207
f 110/108/208 38/38/208 111/109/208
f 111/109/209 38/38/209 39/39/209
f 20/19/210 61/61/210 60/60/210
f 123/121/211 20/19/211 60/60/211
f 39/39/212 16/17/212 17/16/212
f 95/94/213 17/16/213 18/18/213
f 17/16/214 95/94/214 103/102/214
f 103/102/215 95/94/215 94/93/215
f 58/58/216 55/56/216 95/94/216
f 61/61/217 20/19/217 21/21/217
f 41/41/218 19/20/218 20/19/218
f 18/18/219 16/17/219 124/122/219
f 18/18/220 124/122/220 125/123/220
f 18/18/221 125/123/221 126/84/221
f 18/18/222 126/84/222 127/124/222
f 18/18/223 127/124/223 128/125/223
f 18/18/224 128/125/224 129/126/224
f 18/18/225 129/126/225 95/94/225
f 129/126/226 58/58/226 95/94/226
f 129/126/227 128/125/227 130/127/227
f 130/127/228 58/58/228 129/126/228
f 130/127/229 60/60/229 58/58/229
f 130/127/230 123/121/230 60/60/230
f 123/121/231 130/127/231 131/128/231
f 131/128/232 130/127/232 128/125/232
f 128/125/233 127/124/233 131/128/233
f 127/124/234 132/129/234 131/128/234
f 131/128/235 132/129/235 123/121/235
f 132/129/236 20/19/236 123/121/236
f 133/130/237 127/124/237 126/84/237
f 133/130/238 132/129/238 127/124/238
f 134/131/239 132/129/239 133/130/239
f 134/131/240 20/19/240 132/129/240
f 134/131/241 41/41/241 20/19/241
f 126/84/242 125/123/242 133/130/242
f 133/130/243 125/123/243 134/131/243
f 125/123/244 41/41/244 134/131/244
f 124/122/245 41/41/245 125/123/245
f 16/17/246 41/41/246 124/122/246
f 22/22/247 19/20/247 41/41/247
f 23/23/248 22/22/248 135/132/248
f 135/132/249 121/119/249 23/23/249
f 135/132/250 38/38/250 121/119/250
f 22/22/251 38/38/251 135/132/251
f 22/22/252 40/40/252 38/38/252
f 38/38/253 40/40/253 16/17/253
f 40/40/254 22/22/254 41/41/254
